<svg width="20" height="20" viewBox="0 0 20 20" fill="none" xmlns="http://www.w3.org/2000/svg">
<path d="M6.57143 19.1974H3.14286C2.74656 19.2136 2.35082 19.1546 1.9783 19.0238C1.60577 18.8931 1.26377 18.6931 0.971859 18.4353C0.679946 18.1776 0.443854 17.8671 0.277091 17.5217C0.110329 17.1763 0.016169 16.8027 0 16.4224V2.77763C0.016169 2.39726 0.110329 2.02368 0.277091 1.67827C0.443854 1.33286 0.679946 1.0224 0.971859 0.764656C1.26377 0.506909 1.60577 0.306935 1.9783 0.176175C2.35082 0.0454156 2.74656 -0.0135622 3.14286 0.00261619H6.57143C6.79876 0.00261619 7.01677 0.0892861 7.17752 0.24356C7.33826 0.397833 7.42857 0.607073 7.42857 0.825249C7.42857 1.04342 7.33826 1.25266 7.17752 1.40694C7.01677 1.56121 6.79876 1.64788 6.57143 1.64788H3.14286C2.80351 1.61956 2.46583 1.71769 2.19985 1.92191C1.93386 2.12613 1.75999 2.42077 1.71429 2.74473V16.4224C1.75999 16.7463 1.93386 17.041 2.19985 17.2452C2.46583 17.4494 2.80351 17.5475 3.14286 17.5192H6.57143C6.79876 17.5192 7.01677 17.6059 7.17752 17.7602C7.33826 17.9144 7.42857 18.1237 7.42857 18.3418C7.42857 18.56 7.33826 18.7693 7.17752 18.9235C7.01677 19.0778 6.79876 19.1645 6.57143 19.1645V19.1974Z" fill="#64748B"/>
<path d="M14.5715 14.81C14.4589 14.8105 14.3473 14.7895 14.2433 14.748C14.1393 14.7066 14.0449 14.6456 13.9658 14.5687C13.8053 14.4145 13.7151 14.2054 13.7151 13.9874C13.7151 13.7694 13.8053 13.5603 13.9658 13.4061L17.9315 9.60003L13.9658 5.79398C13.8816 5.71867 13.814 5.62785 13.7672 5.52694C13.7203 5.42603 13.6952 5.3171 13.6931 5.20664C13.6911 5.09619 13.7123 4.98647 13.7554 4.88404C13.7985 4.78161 13.8627 4.68856 13.944 4.61044C14.0254 4.53233 14.1224 4.47074 14.2291 4.42937C14.3358 4.388 14.4502 4.36768 14.5653 4.36963C14.6803 4.37158 14.7938 4.39575 14.899 4.44071C15.0041 4.48568 15.0988 4.5505 15.1772 4.63132L19.7487 9.0187C19.9092 9.17294 19.9993 9.38203 19.9993 9.60003C19.9993 9.81803 19.9092 10.0271 19.7487 10.1814L15.1772 14.5687C15.0981 14.6456 15.0038 14.7066 14.8997 14.748C14.7957 14.7895 14.6841 14.8105 14.5715 14.81Z" fill="#64748B"/>
<path d="M19.1428 10.4226H6.57138C6.34405 10.4226 6.12603 10.336 5.96529 10.1817C5.80454 10.0274 5.71423 9.81817 5.71423 9.59999C5.71423 9.38182 5.80454 9.17258 5.96529 9.0183C6.12603 8.86403 6.34405 8.77736 6.57138 8.77736H19.1428C19.3701 8.77736 19.5882 8.86403 19.7489 9.0183C19.9096 9.17258 19.9999 9.38182 19.9999 9.59999C19.9999 9.81817 19.9096 10.0274 19.7489 10.1817C19.5882 10.336 19.3701 10.4226 19.1428 10.4226Z" fill="#64748B"/>
</svg>
