<svg width="22" height="21" viewBox="0 0 22 21" fill="none" xmlns="http://www.w3.org/2000/svg">
<path d="M11 13.2182C12.5062 13.2182 13.7273 12.046 13.7273 10.6C13.7273 9.15402 12.5062 7.98182 11 7.98182C9.49375 7.98182 8.27271 9.15402 8.27271 10.6C8.27271 12.046 9.49375 13.2182 11 13.2182Z" stroke="#64748B" stroke-width="1.3" stroke-linecap="round" stroke-linejoin="round"/>
<path d="M17.7273 13.2182C17.6063 13.4814 17.5702 13.7734 17.6236 14.0565C17.6771 14.3396 17.8177 14.6009 18.0273 14.8065L18.0818 14.8589C18.2509 15.021 18.385 15.2135 18.4765 15.4254C18.568 15.6373 18.6151 15.8644 18.6151 16.0938C18.6151 16.3232 18.568 16.5503 18.4765 16.7622C18.385 16.9741 18.2509 17.1666 18.0818 17.3287C17.913 17.491 17.7124 17.6198 17.4917 17.7076C17.271 17.7954 17.0344 17.8406 16.7955 17.8406C16.5565 17.8406 16.3199 17.7954 16.0992 17.7076C15.8785 17.6198 15.678 17.491 15.5091 17.3287L15.4545 17.2764C15.2403 17.0752 14.9682 16.9402 14.6733 16.8889C14.3784 16.8375 14.0742 16.8722 13.8 16.9884C13.5311 17.099 13.3018 17.2827 13.1403 17.5168C12.9788 17.751 12.8921 18.0254 12.8909 18.3062V18.4545C12.8909 18.9175 12.6994 19.3614 12.3584 19.6888C12.0174 20.0161 11.5549 20.2 11.0727 20.2C10.5905 20.2 10.1281 20.0161 9.78708 19.6888C9.4461 19.3614 9.25455 18.9175 9.25455 18.4545V18.376C9.24751 18.0871 9.15011 17.807 8.97501 17.572C8.79991 17.3369 8.55521 17.1579 8.27273 17.0582C7.99853 16.942 7.69437 16.9074 7.39947 16.9587C7.10456 17.01 6.83244 17.145 6.61818 17.3462L6.56364 17.3985C6.39478 17.5608 6.19425 17.6896 5.97353 17.7774C5.7528 17.8653 5.51621 17.9105 5.27727 17.9105C5.03834 17.9105 4.80174 17.8653 4.58102 17.7774C4.36029 17.6896 4.15977 17.5608 3.99091 17.3985C3.82186 17.2364 3.68775 17.0439 3.59626 16.832C3.50476 16.6201 3.45766 16.393 3.45766 16.1636C3.45766 15.9343 3.50476 15.7071 3.59626 15.4952C3.68775 15.2833 3.82186 15.0908 3.99091 14.9287L4.04545 14.8764C4.25503 14.6707 4.39562 14.4094 4.4491 14.1263C4.50257 13.8432 4.46647 13.5512 4.34545 13.288C4.23022 13.0299 4.03887 12.8097 3.79497 12.6547C3.55107 12.4996 3.26526 12.4164 2.97273 12.4153H2.81818C2.33597 12.4153 1.87351 12.2314 1.53253 11.904C1.19156 11.5767 1 11.1327 1 10.6698C1 10.2069 1.19156 9.76293 1.53253 9.4356C1.87351 9.10826 2.33597 8.92436 2.81818 8.92436H2.9C3.2009 8.91761 3.49273 8.8241 3.73754 8.65601C3.98236 8.48792 4.16883 8.25301 4.27273 7.98182C4.39374 7.71859 4.42984 7.4266 4.37637 7.14349C4.3229 6.86038 4.18231 6.59914 3.97273 6.39345L3.91818 6.34109C3.74913 6.17899 3.61503 5.98648 3.52353 5.77459C3.43203 5.56269 3.38493 5.33556 3.38493 5.10618C3.38493 4.8768 3.43203 4.64967 3.52353 4.43778C3.61503 4.22588 3.74913 4.03338 3.91818 3.87127C4.08704 3.70899 4.28757 3.58024 4.50829 3.4924C4.72901 3.40457 4.96561 3.35935 5.20455 3.35935C5.44348 3.35935 5.68008 3.40457 5.9008 3.4924C6.12152 3.58024 6.32205 3.70899 6.49091 3.87127L6.54545 3.92364C6.75971 4.12483 7.03183 4.2598 7.32674 4.31113C7.62164 4.36246 7.9258 4.32781 8.2 4.21164H8.27273C8.54161 4.10101 8.77092 3.91731 8.93245 3.68317C9.09397 3.44903 9.18065 3.17465 9.18182 2.89382V2.74545C9.18182 2.28253 9.37338 1.83857 9.71435 1.51123C10.0553 1.1839 10.5178 1 11 1C11.4822 1 11.9447 1.1839 12.2856 1.51123C12.6266 1.83857 12.8182 2.28253 12.8182 2.74545V2.824C12.8193 3.10483 12.906 3.37921 13.0676 3.61335C13.2291 3.8475 13.4584 4.03119 13.7273 4.14182C14.0015 4.25799 14.3056 4.29265 14.6005 4.24131C14.8954 4.18998 15.1676 4.05501 15.3818 3.85382L15.4364 3.80145C15.6052 3.63917 15.8057 3.51043 16.0265 3.42259C16.2472 3.33475 16.4838 3.28954 16.7227 3.28954C16.9617 3.28954 17.1983 3.33475 17.419 3.42259C17.6397 3.51043 17.8402 3.63917 18.0091 3.80145C18.1781 3.96356 18.3122 4.15606 18.4037 4.36796C18.4952 4.57985 18.5423 4.80698 18.5423 5.03636C18.5423 5.26574 18.4952 5.49287 18.4037 5.70477C18.3122 5.91666 18.1781 6.10917 18.0091 6.27127L17.9545 6.32364C17.745 6.52932 17.6044 6.79056 17.5509 7.07367C17.4974 7.35678 17.5335 7.64877 17.6545 7.912V7.98182C17.7698 8.23994 17.9611 8.46009 18.205 8.61515C18.4489 8.77021 18.7347 8.85343 19.0273 8.85455H19.1818C19.664 8.85455 20.1265 9.03844 20.4675 9.36578C20.8084 9.69311 21 10.1371 21 10.6C21 11.0629 20.8084 11.5069 20.4675 11.8342C20.1265 12.1616 19.664 12.3455 19.1818 12.3455H19.1C18.8075 12.3466 18.5217 12.4298 18.2778 12.5849C18.0339 12.7399 17.8425 12.9601 17.7273 13.2182V13.2182Z" stroke="#64748B" stroke-width="1.3" stroke-linecap="round" stroke-linejoin="round"/>
</svg>
