<svg width="20" height="20" viewBox="0 0 20 20" fill="none" xmlns="http://www.w3.org/2000/svg">
<path d="M10 9.93104C9.04299 9.93104 8.10748 9.63981 7.31175 9.0942C6.51603 8.54858 5.89584 7.77307 5.52961 6.86574C5.16338 5.95841 5.06756 4.96001 5.25426 3.99679C5.44096 3.03358 5.90181 2.14881 6.57851 1.45437C7.25522 0.759928 8.11739 0.287009 9.05601 0.0954133C9.99463 -0.0961823 10.9675 0.00215149 11.8517 0.37798C12.7358 0.753808 13.4916 1.39025 14.0232 2.20683C14.5549 3.0234 14.8387 3.98343 14.8387 4.96552C14.8387 6.28246 14.3289 7.54545 13.4215 8.47667C12.514 9.40788 11.2833 9.93104 10 9.93104ZM10 1.98621C9.42579 1.98621 8.86448 2.16094 8.38705 2.48831C7.90962 2.81568 7.53751 3.28099 7.31777 3.82539C7.09803 4.36978 7.04053 4.96882 7.15256 5.54675C7.26458 6.12468 7.54108 6.65554 7.94711 7.07221C8.35313 7.48887 8.87044 7.77262 9.43361 7.88758C9.99678 8.00254 10.5805 7.94354 11.111 7.71804C11.6415 7.49255 12.0949 7.11068 12.4139 6.62074C12.733 6.13079 12.9032 5.55477 12.9032 4.96552C12.9032 4.17536 12.5973 3.41756 12.0529 2.85883C11.5084 2.3001 10.77 1.98621 10 1.98621Z" fill="#64748B"/>
<path d="M19.0323 19.2C18.7766 19.1966 18.5324 19.0908 18.3517 18.9053C18.1709 18.7198 18.0679 18.4692 18.0645 18.2069C18.0645 15.6248 16.6968 13.9034 10 13.9034C3.30323 13.9034 1.93548 15.6248 1.93548 18.2069C1.93548 18.4703 1.83353 18.7229 1.65204 18.9091C1.47055 19.0954 1.2244 19.2 0.967742 19.2C0.711081 19.2 0.464932 19.0954 0.283445 18.9091C0.101958 18.7229 0 18.4703 0 18.2069C0 11.9172 7.00645 11.9172 10 11.9172C12.9935 11.9172 20 11.9172 20 18.2069C19.9967 18.4692 19.8936 18.7198 19.7129 18.9053C19.5321 19.0908 19.2879 19.1966 19.0323 19.2Z" fill="#64748B"/>
</svg>
