<svg width="20" height="20" viewBox="0 0 20 20" fill="none" xmlns="http://www.w3.org/2000/svg">
<path d="M8.60114 16.0635C6.985 16.0635 5.40657 15.6034 4.06556 14.7432C2.72473 13.8832 1.68255 12.6627 1.0679 11.2382C0.45336 9.81397 0.29289 8.24792 0.605912 6.73726C0.918965 5.22645 1.69219 3.83606 2.83085 2.74298C3.96971 1.64972 5.42289 0.903255 7.00754 0.600669C8.59226 0.29807 10.2347 0.453522 11.7264 1.04667C13.218 1.63976 14.4899 2.64296 15.3834 3.92663C16.2767 5.21006 16.7523 6.71693 16.7523 8.25677C16.7523 9.27935 16.5425 10.2924 16.1344 11.2382C15.7262 12.1841 15.1275 13.0447 14.3714 13.7705C13.6153 14.4964 12.7167 15.0731 11.7264 15.4669C10.7361 15.8606 9.67406 16.0635 8.60114 16.0635ZM8.60114 1.20574C7.16064 1.20574 5.75108 1.61571 4.55059 2.38574C3.34991 3.15589 2.41124 4.25242 1.85616 5.53884C1.30098 6.8255 1.15539 8.24244 1.43869 9.60966C1.72196 10.9767 2.42065 12.2298 3.44335 13.2116C4.46586 14.1932 5.76643 14.8597 7.17969 15.1295C8.59288 15.3994 10.0579 15.261 11.3901 14.7313C12.7225 14.2015 13.8643 13.3031 14.669 12.1471C15.4738 10.9907 15.9046 9.62925 15.9046 8.23483C15.9046 6.36453 15.1305 4.57474 13.7589 3.25808C12.388 1.94202 10.5323 1.20574 8.60114 1.20574Z" fill="#64748B" stroke="#64748B" stroke-width="0.9"/>
<path d="M19.1441 19.2C19.0316 19.2005 18.92 19.1794 18.8161 19.138C18.7121 19.0966 18.6178 19.0356 18.5387 18.9588L13.8212 14.4301C13.6699 14.2742 13.5875 14.0681 13.5914 13.855C13.5954 13.6419 13.6853 13.4387 13.8422 13.288C13.9992 13.1373 14.2109 13.051 14.4329 13.0472C14.6548 13.0435 14.8696 13.1226 15.032 13.2678L19.7495 17.7964C19.9099 17.9506 20 18.1597 20 18.3776C20 18.5955 19.9099 18.8046 19.7495 18.9588C19.6704 19.0356 19.5761 19.0966 19.4722 19.138C19.3682 19.1794 19.2567 19.2005 19.1441 19.2Z" fill="#64748B"/>
</svg>
