<svg width="24" height="24" viewBox="0 0 24 24" fill="none" xmlns="http://www.w3.org/2000/svg">
<path d="M12.065 15.85C10.9146 15.8492 9.78109 16.1263 8.7608 16.6576C7.74052 17.189 6.8637 17.959 6.20493 18.9021L6.12513 19.0163L6.2332 19.1043C7.86223 20.4305 9.89936 21.1531 11.9999 21.15C14.1376 21.1529 16.2083 20.4044 17.85 19.0352L17.957 18.9459L17.8758 18.8327C17.2143 17.9091 16.342 17.1567 15.3313 16.638C14.3207 16.1193 13.201 15.8491 12.065 15.85ZM12.065 15.85C12.0649 15.85 12.0651 15.85 12.065 15.85ZM2.8499 12C2.8499 14.1247 3.57487 16.081 4.78974 17.6344L4.90948 17.7875L5.02724 17.6329C5.85246 16.5492 6.91706 15.6709 8.13787 15.0667C9.35867 14.4626 10.7026 14.1488 12.0648 14.15C13.4093 14.1487 14.7366 14.4544 15.9451 15.0436C17.1536 15.6329 18.2116 16.4902 19.0386 17.5503L19.1583 17.7036L19.2762 17.5489C20.1571 16.3936 20.7502 15.0451 21.0064 13.615C21.2627 12.185 21.1747 10.7144 20.7498 9.32514C20.3249 7.93581 19.5753 6.66763 18.563 5.62554C17.5506 4.58344 16.3047 3.79739 14.9283 3.33242C13.5519 2.86744 12.0845 2.73692 10.6476 2.95164C9.2107 3.16636 7.84559 3.72016 6.66522 4.56721C5.48484 5.41425 4.52314 6.5302 3.85968 7.82272C3.19622 9.11523 2.85008 10.5471 2.8499 12ZM1.1499 12C1.1499 6.00786 6.00774 1.15002 11.9999 1.15002C17.9921 1.15002 22.8499 6.00786 22.8499 12C22.8499 17.9922 17.9921 22.85 11.9999 22.85C6.00774 22.85 1.1499 17.9922 1.1499 12Z" fill="#D9D9D9"/>
<path d="M12.065 15.85C10.9146 15.8492 9.78109 16.1263 8.7608 16.6576C7.74052 17.189 6.8637 17.959 6.20493 18.9021L6.12513 19.0163L6.2332 19.1043C7.86223 20.4305 9.89936 21.1531 11.9999 21.15C14.1376 21.1529 16.2083 20.4044 17.85 19.0352L17.957 18.9459L17.8758 18.8327C17.2143 17.9091 16.342 17.1567 15.3313 16.638C14.3207 16.1193 13.201 15.8491 12.065 15.85ZM12.065 15.85L12.0649 16M12.065 15.85C12.0651 15.85 12.0649 15.85 12.065 15.85ZM2.8499 12C2.8499 14.1247 3.57487 16.081 4.78974 17.6344L4.90948 17.7875L5.02724 17.6329C5.85246 16.5492 6.91706 15.6709 8.13787 15.0667C9.35867 14.4626 10.7026 14.1488 12.0648 14.15C13.4093 14.1487 14.7366 14.4544 15.9451 15.0436C17.1536 15.6329 18.2116 16.4902 19.0386 17.5503L19.1583 17.7036L19.2762 17.5489C20.1571 16.3936 20.7502 15.0451 21.0064 13.615C21.2627 12.185 21.1747 10.7144 20.7498 9.32514C20.3249 7.93581 19.5753 6.66763 18.563 5.62554C17.5506 4.58344 16.3047 3.79739 14.9283 3.33242C13.5519 2.86744 12.0845 2.73692 10.6476 2.95164C9.2107 3.16636 7.84559 3.72016 6.66522 4.56721C5.48484 5.41425 4.52314 6.5302 3.85968 7.82272C3.19622 9.11523 2.85008 10.5471 2.8499 12ZM1.1499 12C1.1499 6.00786 6.00774 1.15002 11.9999 1.15002C17.9921 1.15002 22.8499 6.00786 22.8499 12C22.8499 17.9922 17.9921 22.85 11.9999 22.85C6.00774 22.85 1.1499 17.9922 1.1499 12Z" stroke="#D9D9D9" stroke-width="0.3"/>
<path fill-rule="evenodd" clip-rule="evenodd" d="M12 6C11.2044 6 10.4413 6.31607 9.87868 6.87868C9.31607 7.44129 9 8.20435 9 9C9 9.79565 9.31607 10.5587 9.87868 11.1213C10.4413 11.6839 11.2044 12 12 12C12.7956 12 13.5587 11.6839 14.1213 11.1213C14.6839 10.5587 15 9.79565 15 9C15 8.20435 14.6839 7.44129 14.1213 6.87868C13.5587 6.31607 12.7956 6 12 6Z" fill="#D9D9D9"/>
</svg>
