<svg width="24" height="24" viewBox="0 0 24 24" fill="none" xmlns="http://www.w3.org/2000/svg">
<path d="M12.0651 15.85C10.9147 15.8492 9.78119 16.1263 8.7609 16.6576C7.74062 17.189 6.8638 17.959 6.20503 18.9021L6.12523 19.0163L6.2333 19.1043C7.86233 20.4305 9.89946 21.1531 12 21.15C14.1377 21.1529 16.2084 20.4044 17.8501 19.0352L17.9571 18.9459L17.8759 18.8327C17.2144 17.9091 16.3421 17.1567 15.3314 16.638C14.3208 16.1193 13.2011 15.8491 12.0651 15.85ZM12.0651 15.85L12.065 16L12.0649 15.85C12.065 15.85 12.065 15.85 12.0651 15.85ZM2.85 12V12C2.85 14.1247 3.57497 16.081 4.78984 17.6344L4.90958 17.7875L5.02734 17.6329C5.85256 16.5492 6.91716 15.6709 8.13797 15.0667C9.35877 14.4626 10.7027 14.1488 12.0649 14.15L12.0651 14.15C13.4096 14.1487 14.7367 14.4544 15.9452 15.0436C17.1537 15.6329 18.2117 16.4902 19.0387 17.5503L19.1584 17.7036L19.2763 17.5489C20.1572 16.3936 20.7503 15.0451 21.0065 13.615C21.2628 12.185 21.1748 10.7144 20.7499 9.32512C20.325 7.93579 19.5754 6.66761 18.5631 5.62552C17.5507 4.58342 16.3048 3.79737 14.9284 3.3324C13.552 2.86742 12.0846 2.7369 10.6477 2.95162C9.2108 3.16634 7.84569 3.72014 6.66532 4.56719C5.48494 5.41423 4.52324 6.53018 3.85978 7.8227C3.19632 9.11521 2.85018 10.5471 2.85 12ZM1.15 12C1.15 6.00784 6.00784 1.15 12 1.15C17.9922 1.15 22.85 6.00784 22.85 12C22.85 17.9922 17.9922 22.85 12 22.85C6.00784 22.85 1.15 17.9922 1.15 12Z" fill="#fff" stroke="#fff" stroke-width="0.3"/>
<path fill-rule="evenodd" clip-rule="evenodd" d="M12 6C11.2044 6 10.4413 6.31607 9.87868 6.87868C9.31607 7.44129 9 8.20435 9 9C9 9.79565 9.31607 10.5587 9.87868 11.1213C10.4413 11.6839 11.2044 12 12 12C12.7956 12 13.5587 11.6839 14.1213 11.1213C14.6839 10.5587 15 9.79565 15 9C15 8.20435 14.6839 7.44129 14.1213 6.87868C13.5587 6.31607 12.7956 6 12 6Z" fill="#fff"/>
</svg>
