<svg width="20" height="19" viewBox="0 0 20 19" fill="none" xmlns="http://www.w3.org/2000/svg">
<path d="M19.35 7.50078V14.35H18.2992H17.5403L17.6569 15.0999C17.6733 15.2057 17.6822 15.3126 17.6833 15.4197C17.6825 16.0198 17.4438 16.5951 17.0194 17.0194C16.5944 17.4445 16.0178 17.6833 15.4167 17.6833C14.8155 17.6833 14.239 17.4445 13.8139 17.0194C13.3895 16.5951 13.1508 16.0198 13.15 15.4198C13.1511 15.3127 13.16 15.2057 13.1764 15.0999L13.2931 14.35H12.5342H7.46583H6.70694L6.82355 15.0999C6.84001 15.2057 6.84885 15.3126 6.85 15.4197C6.8492 16.0198 6.61048 16.5951 6.18611 17.0194C5.76103 17.4445 5.18449 17.6833 4.58333 17.6833C3.98217 17.6833 3.40564 17.4445 2.98056 17.0194C2.5562 16.5951 2.31748 16.0198 2.31667 15.4197C2.31782 15.3126 2.32665 15.2057 2.34311 15.0999L2.45973 14.35H1.70083H0.65V2.5C0.65 2.00935 0.84491 1.53879 1.19185 1.19185C1.53879 0.84491 2.00935 0.65 2.5 0.65H11.6667C12.1573 0.65 12.6279 0.84491 12.9748 1.19185C13.3218 1.53879 13.5167 2.00935 13.5167 2.5V3.33333V3.98333H14.1667H15.8329C16.7653 3.98455 17.6592 4.35549 18.3185 5.0148C18.9779 5.67421 19.3489 6.56824 19.35 7.50078ZM18.3333 8.98333H18.9833V8.33333V7.5C18.9833 6.66457 18.6515 5.86335 18.0607 5.27261C17.47 4.68187 16.6688 4.35 15.8333 4.35H14.1667H13.5167V5V8.33333V8.98333H14.1667H18.3333ZM6.48334 15.4167L6.48333 15.4143C6.48254 15.1936 6.44184 14.9748 6.3632 14.7685L6.20367 14.35H5.75583H3.41083H2.96299L2.80347 14.7685C2.72483 14.9748 2.68413 15.1936 2.68333 15.4143V15.4167C2.68333 15.9206 2.88351 16.4039 3.23983 16.7602C3.59615 17.1165 4.07942 17.3167 4.58333 17.3167C5.08725 17.3167 5.57052 17.1165 5.92684 16.7602C6.28316 16.4039 6.48333 15.9206 6.48334 15.4167ZM12.5 13.9833H13.15V13.3333V2.5C13.15 2.10659 12.9937 1.7293 12.7155 1.45113C12.4374 1.17295 12.0601 1.01667 11.6667 1.01667H2.5C2.1066 1.01667 1.7293 1.17295 1.45113 1.45112C1.17295 1.7293 1.01667 2.1066 1.01667 2.5V13.3333V13.9833H1.66667H12.5ZM17.3167 15.4167L17.3167 15.415C17.3161 15.1938 17.2753 14.9745 17.1963 14.7678L17.0365 14.35H16.5892H14.2442H13.7968L13.637 14.7678C13.558 14.9745 13.5172 15.1938 13.5167 15.415V15.4167C13.5167 15.9206 13.7168 16.4039 14.0732 16.7602C14.4295 17.1165 14.9128 17.3167 15.4167 17.3167C15.9206 17.3167 16.4039 17.1165 16.7602 16.7602C17.1165 16.4039 17.3167 15.9206 17.3167 15.4167ZM13.5167 13.3333V13.9833H14.1667H18.3333H18.9833V13.3333V10V9.35H18.3333H14.1667H13.5167V10V13.3333Z" stroke="#64748B" stroke-width="1.3"/>
</svg>
